<svg id="visual" viewBox="0 0 900 300" width="900" height="300" xmlns="http://www.w3.org/2000/svg" xmlns:xlink="http://www.w3.org/1999/xlink" version="1.1"><rect x="0" y="0" width="900" height="300" fill="#0000FF"></rect><g transform="translate(450.32489653332834 152.89412557655868)"><path d="M64.1 -112.2C80.6 -101.6 89.7 -79.3 100.2 -58.6C110.8 -38 122.9 -19 126.2 1.9C129.5 22.8 124.1 45.7 114.1 67.3C104.1 89 89.5 109.4 69.8 113.6C50 117.9 25 105.8 0.9 104.2C-23.2 102.6 -46.3 111.5 -59.8 103.6C-73.2 95.8 -76.9 71.1 -88.6 51.1C-100.4 31 -120.2 15.5 -126 -3.3C-131.7 -22.2 -123.5 -44.3 -108.4 -58.6C-93.3 -72.9 -71.4 -79.3 -52.2 -88.4C-33 -97.5 -16.5 -109.2 3.7 -115.6C23.8 -121.9 47.7 -122.9 64.1 -112.2" fill="#00A0FF"></path></g></svg>