<?xml version="1.0" encoding="UTF-8"?>
<svg xmlns="http://www.w3.org/2000/svg" xmlns:xlink="http://www.w3.org/1999/xlink" width="150pt" height="150pt" viewBox="0 0 150 150" version="1.1">
<g id="surface1764415">
<path style=" stroke:none;fill-rule:nonzero;fill:rgb(100%,100%,100%);fill-opacity:1;" d="M 74.882812 6 C 74.519531 5.988281 74.15625 6.042969 73.8125 6.164062 L 11.015625 28.019531 C 9.679688 28.484375 8.851562 29.816406 9.023438 31.21875 L 18.945312 112.589844 C 19.0625 113.550781 19.636719 114.398438 20.492188 114.863281 L 73.429688 143.636719 C 74.328125 144.125 75.410156 144.121094 76.304688 143.632812 L 129.523438 114.460938 C 130.367188 114 130.941406 113.152344 131.054688 112.195312 L 140.976562 30.832031 C 141.148438 29.421875 140.3125 28.085938 138.96875 27.628906 L 75.761719 6.160156 C 75.476562 6.0625 75.183594 6.007812 74.882812 6 Z M 74.8125 12.175781 L 134.726562 32.523438 L 125.285156 109.945312 L 74.859375 137.585938 L 24.714844 110.328125 L 15.269531 32.894531 Z M 75.105469 18 C 73.902344 17.957031 72.789062 18.640625 72.28125 19.734375 L 33.28125 103.734375 C 32.847656 104.664062 32.921875 105.75 33.472656 106.613281 C 34.023438 107.476562 34.976562 108 36 108 L 49.3125 108 C 50.480469 108 51.539062 107.324219 52.03125 106.265625 L 59.570312 90.023438 L 90.429688 90.023438 L 97.96875 106.265625 C 98.460938 107.324219 99.519531 108 100.6875 108 L 114 108 C 115.023438 108 115.976562 107.476562 116.527344 106.613281 C 117.078125 105.75 117.152344 104.664062 116.71875 103.734375 L 77.71875 19.734375 C 77.242188 18.710938 76.234375 18.039062 75.105469 18 Z M 75 28.117188 L 109.300781 102 L 102.601562 102 L 95.0625 85.757812 C 94.570312 84.699219 93.511719 84.023438 92.34375 84.023438 L 57.65625 84.023438 C 56.488281 84.023438 55.429688 84.699219 54.9375 85.757812 L 47.390625 102 L 40.699219 102 Z M 75.117188 46.5 C 73.902344 46.453125 72.78125 47.144531 72.273438 48.246094 L 60.496094 73.78125 C 60.070312 74.710938 60.144531 75.792969 60.699219 76.652344 C 61.25 77.515625 62.199219 78.035156 63.222656 78.035156 L 86.777344 78.035156 C 87.800781 78.035156 88.75 77.515625 89.300781 76.652344 C 89.855469 75.792969 89.929688 74.710938 89.5 73.78125 L 77.722656 48.246094 C 77.253906 47.21875 76.246094 46.542969 75.117188 46.5 Z M 75 56.660156 L 82.089844 72.035156 L 67.910156 72.035156 Z M 75 56.660156 "/>
</g>
</svg>
