<svg xmlns="http://www.w3.org/2000/svg" xmlns:xlink="http://www.w3.org/1999/xlink" width="192" height="192" version="1.1" viewBox="0 0 144 144"><g id="surface1788132"><path style="stroke:none;fill-rule:nonzero;fill:#fff;fill-opacity:1" d="M 72 42.265625 C 34.28125 42.265625 3.324219 71.148438 0 108 L 144 108 C 140.675781 71.148438 109.71875 42.265625 72 42.265625 Z M 99.535156 81.238281 C 99.535156 77.925781 102.222656 75.238281 105.535156 75.238281 C 108.847656 75.238281 111.53125 77.925781 111.53125 81.238281 C 111.53125 84.550781 108.847656 87.234375 105.535156 87.234375 C 102.222656 87.234375 99.535156 84.550781 99.535156 81.238281 Z M 38.464844 87.234375 C 35.152344 87.234375 32.46875 84.550781 32.46875 81.238281 C 32.46875 77.925781 35.152344 75.238281 38.464844 75.238281 C 41.777344 75.238281 44.464844 77.925781 44.464844 81.238281 C 44.464844 84.550781 41.777344 87.234375 38.464844 87.234375 Z M 38.464844 87.234375"/><path style="stroke:none;fill-rule:nonzero;fill:#fff;fill-opacity:1" d="M 102.113281 57.9375 C 101.695312 57.9375 101.269531 57.835938 100.882812 57.609375 C 99.703125 56.929688 99.304688 55.421875 99.980469 54.242188 L 115.570312 27.21875 C 116.253906 26.035156 117.757812 25.632812 118.9375 26.316406 C 120.117188 26.996094 120.519531 28.503906 119.839844 29.683594 L 104.25 56.707031 C 103.792969 57.496094 102.964844 57.9375 102.113281 57.9375 Z M 102.113281 57.9375"/><path style="stroke:none;fill-rule:nonzero;fill:#fff;fill-opacity:1" d="M 41.886719 57.9375 C 41.035156 57.9375 40.207031 57.496094 39.75 56.707031 L 24.160156 29.683594 C 23.480469 28.503906 23.886719 26.996094 25.0625 26.316406 C 26.238281 25.632812 27.746094 26.035156 28.429688 27.21875 L 44.019531 54.242188 C 44.699219 55.425781 44.296875 56.929688 43.117188 57.609375 C 42.730469 57.835938 42.304688 57.9375 41.886719 57.9375 Z M 41.886719 57.9375"/></g></svg>