<svg id="visual" viewBox="0 0 900 300" width="900" height="300" xmlns="http://www.w3.org/2000/svg" xmlns:xlink="http://www.w3.org/1999/xlink" version="1.1"><rect x="0" y="0" width="900" height="300" fill="#FFFFFF"></rect><path d="M0 66L30 67.2C60 68.3 120 70.7 180 66.2C240 61.7 300 50.3 360 60C420 69.7 480 100.3 540 123.8C600 147.3 660 163.7 720 147.8C780 132 840 84 870 60L900 36L900 301L870 301C840 301 780 301 720 301C660 301 600 301 540 301C480 301 420 301 360 301C300 301 240 301 180 301C120 301 60 301 30 301L0 301Z" fill="#00d2ff"></path><path d="M0 230L30 227C60 224 120 218 180 208C240 198 300 184 360 179.2C420 174.3 480 178.7 540 178.2C600 177.7 660 172.3 720 180C780 187.7 840 208.3 870 218.7L900 229L900 301L870 301C840 301 780 301 720 301C660 301 600 301 540 301C480 301 420 301 360 301C300 301 240 301 180 301C120 301 60 301 30 301L0 301Z" fill="#009dff"></path><path d="M0 177L30 191.2C60 205.3 120 233.7 180 237.5C240 241.3 300 220.7 360 223C420 225.3 480 250.7 540 259.8C600 269 660 262 720 248.8C780 235.7 840 216.3 870 206.7L900 197L900 301L870 301C840 301 780 301 720 301C660 301 600 301 540 301C480 301 420 301 360 301C300 301 240 301 180 301C120 301 60 301 30 301L0 301Z" fill="#0050ff"></path></svg>