<svg id="visual" viewBox="0 0 900 300" width="900" height="300" xmlns="http://www.w3.org/2000/svg" xmlns:xlink="http://www.w3.org/1999/xlink" version="1.1"><path d="M0 85L30 79.5C60 74 120 63 180 55.5C240 48 300 44 360 51.5C420 59 480 78 540 98C600 118 660 139 720 129.5C780 120 840 80 870 60L900 40L900 0L870 0C840 0 780 0 720 0C660 0 600 0 540 0C480 0 420 0 360 0C300 0 240 0 180 0C120 0 60 0 30 0L0 0Z" fill="#0050ff"></path><path d="M0 139L30 133.5C60 128 120 117 180 110C240 103 300 100 360 104C420 108 480 119 540 143C600 167 660 204 720 196C780 188 840 135 870 108.5L900 82L900 38L870 58C840 78 780 118 720 127.5C660 137 600 116 540 96C480 76 420 57 360 49.5C300 42 240 46 180 53.5C120 61 60 72 30 77.5L0 83Z" fill="#925aff"></path><path d="M0 205L30 194C60 183 120 161 180 150C240 139 300 139 360 145.5C420 152 480 165 540 187C600 209 660 240 720 236.5C780 233 840 195 870 176L900 157L900 80L870 106.5C840 133 780 186 720 194C660 202 600 165 540 141C480 117 420 106 360 102C300 98 240 101 180 108C120 115 60 126 30 131.5L0 137Z" fill="#cf6aff"></path><path d="M0 301L30 301C60 301 120 301 180 301C240 301 300 301 360 301C420 301 480 301 540 301C600 301 660 301 720 301C780 301 840 301 870 301L900 301L900 155L870 174C840 193 780 231 720 234.5C660 238 600 207 540 185C480 163 420 150 360 143.5C300 137 240 137 180 148C120 159 60 181 30 192L0 203Z" fill="#ff80ff"></path></svg>