<svg id="visual" viewBox="0 0 900 300" width="900" height="300" xmlns="http://www.w3.org/2000/svg" xmlns:xlink="http://www.w3.org/1999/xlink" version="1.1"><path d="M0 109L30 116C60 123 120 137 180 131C240 125 300 99 360 99.5C420 100 480 127 540 133.5C600 140 660 126 720 108.5C780 91 840 70 870 59.5L900 49L900 0L870 0C840 0 780 0 720 0C660 0 600 0 540 0C480 0 420 0 360 0C300 0 240 0 180 0C120 0 60 0 30 0L0 0Z" fill="#0050ff"></path><path d="M0 169L30 170.5C60 172 120 175 180 175C240 175 300 172 360 180.5C420 189 480 209 540 214.5C600 220 660 211 720 190C780 169 840 136 870 119.5L900 103L900 47L870 57.5C840 68 780 89 720 106.5C660 124 600 138 540 131.5C480 125 420 98 360 97.5C300 97 240 123 180 129C120 135 60 121 30 114L0 107Z" fill="#0043b4"></path><path d="M0 223L30 225C60 227 120 231 180 237.5C240 244 300 253 360 258C420 263 480 264 540 262C600 260 660 255 720 249C780 243 840 236 870 232.5L900 229L900 101L870 117.5C840 134 780 167 720 188C660 209 600 218 540 212.5C480 207 420 187 360 178.5C300 170 240 173 180 173C120 173 60 170 30 168.5L0 167Z" fill="#002f6a"></path><path d="M0 301L30 301C60 301 120 301 180 301C240 301 300 301 360 301C420 301 480 301 540 301C600 301 660 301 720 301C780 301 840 301 870 301L900 301L900 227L870 230.5C840 234 780 241 720 247C660 253 600 258 540 260C480 262 420 261 360 256C300 251 240 242 180 235.5C120 229 60 225 30 223L0 221Z" fill="#001220"></path></svg>